<?xml version="1.0" encoding="UTF-8" standalone="no"?>
<!-- Created with Inkscape (http://www.inkscape.org/) -->

<svg
   width="23.073858mm"
   height="18.786987mm"
   viewBox="0 0 23.073858 18.786987"
   version="1.1"
   id="svg5"
   inkscape:version="1.2.2 (732a01da63, 2022-12-09)"
   sodipodi:docname="logo_and_graphic_scr.svg"
   xmlns:inkscape="http://www.inkscape.org/namespaces/inkscape"
   xmlns:sodipodi="http://sodipodi.sourceforge.net/DTD/sodipodi-0.dtd"
   xmlns="http://www.w3.org/2000/svg"
   xmlns:svg="http://www.w3.org/2000/svg">
  <sodipodi:namedview
     id="namedview7"
     pagecolor="#a4a4a4"
     bordercolor="#000000"
     borderopacity="0.25"
     inkscape:showpageshadow="2"
     inkscape:pageopacity="0"
     inkscape:pagecheckerboard="0"
     inkscape:deskcolor="#d1d1d1"
     inkscape:document-units="mm"
     showgrid="false"
     showguides="true"
     inkscape:zoom="5.6568542"
     inkscape:cx="156.88932"
     inkscape:cy="78.400465"
     inkscape:window-width="2560"
     inkscape:window-height="1361"
     inkscape:window-x="2391"
     inkscape:window-y="-9"
     inkscape:window-maximized="1"
     inkscape:current-layer="layer1" />
  <defs
     id="defs2" />
  <g
     inkscape:label="Layer 1"
     inkscape:groupmode="layer"
     id="layer1"
     transform="translate(-24.152487,-13.301904)">
    <g
       aria-label="WIMS"
       id="text790"
       style="font-size:16.9333px;font-family:Mistral;-inkscape-font-specification:Mistral;text-align:center;text-anchor:middle;fill:#050502;stroke-width:0.379413;stroke-linecap:round" />
    <g
       id="g934"
       transform="matrix(1.3643782,0,0,1.3643782,-5.4082852,-45.699771)"
       inkscape:export-filename="SWIMS\wwwroot\WowDash\images\logo.png"
       inkscape:export-xdpi="96"
       inkscape:export-ydpi="96">
      <g
         id="g912"
         transform="translate(0,-17.024685)"
         style="stroke:none;stroke-opacity:1"
         inkscape:export-filename="SWIMS\wwwroot\WowDash\images\logo.png"
         inkscape:export-xdpi="96"
         inkscape:export-ydpi="96">
        <g
           id="g1501">
          <g
             id="g1485">
            <g
               id="g1470">
              <g
                 id="g1456">
                <g
                   id="g1443">
                  <g
                     id="g1819"
                     style="fill:#333333;fill-opacity:1;stroke:none"
                     transform="matrix(0.53799273,0,0,0.53799273,2.76637,32.199394)"
                     inkscape:export-filename="SWIMS\wwwroot\WowDash\images\logo.png"
                     inkscape:export-xdpi="96"
                     inkscape:export-ydpi="96">
                    <g
                       id="g1817"
                       style="fill:#333333;fill-opacity:1;stroke:none;stroke-opacity:1">
                      <path
                         id="path1809"
                         style="font-size:16.9333px;font-family:Mistral;-inkscape-font-specification:OCEAN;text-align:center;text-anchor:middle;fill:#333333;fill-opacity:1;stroke:none;stroke-width:0.379413;stroke-linecap:round;stroke-opacity:1"
                         d="m 41.014059,66.639419 c -0.494484,-5.53e-4 -1.317833,-9.3e-5 -1.941495,0.0076 -0.266293,-0.0064 -0.517034,-0.0068 -0.734405,-0.0068 h -0.330653 c -0.446479,0 -0.821354,0.05489 -1.124522,0.165137 -1.16857,0.429947 -1.752875,1.16879 -1.752875,2.216093 v 0.429886 c 0,1.361495 0.77193,2.474832 2.315326,3.340235 1.102424,0.545702 1.653642,1.229272 1.653642,2.050577 v 0.132185 c 0,0.507117 -0.341784,0.804913 -1.025289,0.893103 -2.197493,-0.03218 -2.606247,-3.686497 -2.844446,-1.488126 v 0.264328 c 0,0.644917 0.09927,1.185231 0.297701,1.62069 0.407899,0.992182 1.245626,1.488126 2.513415,1.488126 h 0.396935 c 0.286627,0 0.485159,-0.0218 0.595402,-0.0659 1.4111,-0.292143 2.11648,-1.041889 2.11648,-2.249044 v -0.330653 c 0,-1.344955 -0.727565,-2.469575 -2.182762,-3.373566 -1.16857,-0.661453 -1.752876,-1.39992 -1.752876,-2.215713 v -0.03333 c 0,-0.606336 0.353065,-0.959024 1.058619,-1.05824 h 0.231419 c 0.137342,0 0.881826,0.0158 1.625235,0.03939 0.526919,0.04946 1.223095,0.225102 1.267691,0.706756 0,2.72474 0.475064,5.907255 0.625324,8.580303 l 1.591526,0.0125 c 0.104731,-0.126779 0.287904,-1.395871 1.153307,-3.782621 l 0.165516,0.330653 c 0.733111,2.293043 1.129795,3.439469 1.190425,3.439469 h 1.88544 c 0.03904,-0.05856 0.681994,-3.10127 1.861578,-8.793542 0.03883,0.130301 0.06169,0.280496 0.09583,0.44996 0.06957,0.345351 1.91977,0.384564 1.914225,0.07878 -0.0075,-0.411738 -0.07689,-0.83593 -0.158319,-1.226785 -0.115755,-0.42719 -0.489355,-1.553509 -1.25898,-1.554409 -0.0579,-5e-5 -0.127735,-0.0017 -0.186726,-0.0019 -0.03543,-1.21e-4 -0.06568,1.88e-4 -0.08825,0.0015 h -0.217026 -1.499489 l -0.03295,0.03333 -1.554408,7.308825 h -0.06628 C 46.26613,72.383553 45.924347,71.435655 45.792056,71.204149 h -1.819158 c -0.0441,0 -0.253529,0.529032 -0.628354,1.587359 h -0.03295 v -3.47242 c 0,-0.540189 -0.03308,-0.959052 -0.09923,-1.256708 -0.330729,-0.948085 -0.848858,-1.422223 -1.554408,-1.422223 h -0.231419 c -0.03859,0 -0.192043,-5.11e-4 -0.412464,-7.57e-4 z m 16.824273,0 c -0.104731,0.126779 -0.287902,1.395867 -1.153307,3.782621 L 56.519509,70.091387 C 55.786396,67.79834 55.389714,66.651539 55.329084,66.651539 h -1.885061 c -0.03652,0.05478 -0.601352,2.719341 -1.635841,7.703487 0.01653,-0.633467 0.05471,-2.20869 0.06401,-3.631119 0.002,-0.317263 -0.475336,-0.475718 -0.952568,-0.475716 -0.477229,3e-6 -0.954309,0.158463 -0.951052,0.475716 0.01872,1.823531 0,4.779881 0,4.779881 0,0.358289 0.03308,0.644799 0.09923,0.859773 0.300369,0.901113 0.788848,1.363513 1.465022,1.387756 0.34844,0.03777 0.605531,0.0022 1.463886,0.01439 l 1.571831,-7.409952 h 0.0659 c 0.551214,1.664663 0.892999,2.612937 1.025288,2.844445 h 1.819158 c 0.0441,0 0.253529,-0.529409 0.628354,-1.587738 h 0.03295 v 3.472799 c 0,0.540189 0.03308,0.959052 0.09923,1.256708 0.330729,0.948087 0.848856,1.422223 1.554408,1.422223 h 0.231419 c 0.125287,0 1.455242,0.004 2.356989,-0.0072 0.265142,0.0063 0.514838,0.0072 0.731375,0.0072 h 0.330653 c 0.446482,0 0.821354,-0.05527 1.124522,-0.165516 1.168573,-0.429947 1.752875,-1.168408 1.752875,-2.215714 v -0.429886 c 0,-1.361498 -0.771548,-2.475208 -2.314947,-3.340614 -1.102427,-0.545702 -1.653642,-1.22889 -1.653642,-2.050198 V 69.4297 c 0,-0.507117 0.341405,-0.804534 1.02491,-0.892724 2.197503,0.03218 2.606247,3.686503 2.844446,1.488126 v -0.264749 c 0,-0.644921 -0.09926,-1.184853 -0.297701,-1.620312 -0.407899,-0.992185 -1.245623,-1.488505 -2.513415,-1.488505 h -0.396934 c -0.286631,0 -0.48516,0.02218 -0.595403,0.06628 -1.411106,0.292143 -2.116479,1.041886 -2.116479,2.249044 v 0.330653 c 0,1.344961 0.727558,2.469575 2.182762,3.373566 1.168572,0.661456 1.752875,1.399917 1.752875,2.215713 v 0.03295 c 0,0.606335 -0.352687,0.959399 -1.05824,1.058618 h -0.231798 c -0.137367,0 -0.881706,-0.01579 -1.625235,-0.03939 -0.526867,-0.04948 -1.222716,-0.225102 -1.267312,-0.706756 0,-2.724746 -0.475064,-5.907628 -0.625324,-8.580682 z" />
                      <g
                         aria-label="S"
                         id="g1811"
                         style="font-size:16.9333px;font-family:Mistral;-inkscape-font-specification:Mistral;text-align:center;text-anchor:middle;fill:#333333;fill-opacity:1;stroke:none;stroke-width:0.379413;stroke-linecap:round;stroke-opacity:1" />
                      <g
                         id="g1815"
                         transform="rotate(180,31.188251,70.79619)"
                         style="fill:#333333;fill-opacity:1;stroke:none;stroke-opacity:1">
                        <g
                           aria-label="S"
                           id="g1813"
                           style="font-size:16.9333px;font-family:Mistral;-inkscape-font-specification:Mistral;text-align:center;text-anchor:middle;fill:#333333;fill-opacity:1;stroke:none;stroke-width:0.379413;stroke-linecap:round;stroke-opacity:1" />
                      </g>
                    </g>
                  </g>
                  <g
                     id="g2117"
                     style="fill:#e6e6e6;fill-opacity:1;stroke:none"
                     transform="matrix(0.53799408,0,0,0.53799408,2.8970815,24.41753)"
                     inkscape:export-filename="SWIMS\wwwroot\WowDash\images\logo-light.png"
                     inkscape:export-xdpi="96"
                     inkscape:export-ydpi="96">
                    <g
                       id="g2115"
                       style="fill:#e6e6e6;fill-opacity:1;stroke:none;stroke-opacity:1">
                      <path
                         id="path2107"
                         style="font-size:16.9333px;font-family:Mistral;-inkscape-font-specification:OCEAN;text-align:center;text-anchor:middle;fill:#e6e6e6;fill-opacity:1;stroke:none;stroke-width:0.379413;stroke-linecap:round;stroke-opacity:1"
                         d="m 41.014059,66.639419 c -0.494484,-5.53e-4 -1.317833,-9.3e-5 -1.941495,0.0076 -0.266293,-0.0064 -0.517034,-0.0068 -0.734405,-0.0068 h -0.330653 c -0.446479,0 -0.821354,0.05489 -1.124522,0.165137 -1.16857,0.429947 -1.752875,1.16879 -1.752875,2.216093 v 0.429886 c 0,1.361495 0.77193,2.474832 2.315326,3.340235 1.102424,0.545702 1.653642,1.229272 1.653642,2.050577 v 0.132185 c 0,0.507117 -0.341784,0.804913 -1.025289,0.893103 -2.197493,-0.03218 -2.606247,-3.686497 -2.844446,-1.488126 v 0.264328 c 0,0.644917 0.09927,1.185231 0.297701,1.62069 0.407899,0.992182 1.245626,1.488126 2.513415,1.488126 h 0.396935 c 0.286627,0 0.485159,-0.0218 0.595402,-0.0659 1.4111,-0.292143 2.11648,-1.041889 2.11648,-2.249044 v -0.330653 c 0,-1.344955 -0.727565,-2.469575 -2.182762,-3.373566 -1.16857,-0.661453 -1.752876,-1.39992 -1.752876,-2.215713 v -0.03333 c 0,-0.606336 0.353065,-0.959024 1.058619,-1.05824 h 0.231419 c 0.137342,0 0.881826,0.0158 1.625235,0.03939 0.526919,0.04946 1.223095,0.225102 1.267691,0.706756 0,2.72474 0.475064,5.907255 0.625324,8.580303 l 1.591526,0.0125 c 0.104731,-0.126779 0.287904,-1.395871 1.153307,-3.782621 l 0.165516,0.330653 c 0.733111,2.293043 1.129795,3.439469 1.190425,3.439469 h 1.88544 c 0.03904,-0.05856 0.681994,-3.10127 1.861578,-8.793542 0.03883,0.130301 0.06169,0.280496 0.09583,0.44996 0.06957,0.345351 1.91977,0.384564 1.914225,0.07878 -0.0075,-0.411738 -0.07689,-0.83593 -0.158319,-1.226785 -0.115755,-0.42719 -0.489355,-1.553509 -1.25898,-1.554409 -0.0579,-5e-5 -0.127735,-0.0017 -0.186726,-0.0019 -0.03543,-1.21e-4 -0.06568,1.88e-4 -0.08825,0.0015 h -0.217026 -1.499489 l -0.03295,0.03333 -1.554408,7.308825 h -0.06628 C 46.26613,72.383553 45.924347,71.435655 45.792056,71.204149 h -1.819158 c -0.0441,0 -0.253529,0.529032 -0.628354,1.587359 h -0.03295 v -3.47242 c 0,-0.540189 -0.03308,-0.959052 -0.09923,-1.256708 -0.330729,-0.948085 -0.848858,-1.422223 -1.554408,-1.422223 h -0.231419 c -0.03859,0 -0.192043,-5.11e-4 -0.412464,-7.57e-4 z m 16.824273,0 c -0.104731,0.126779 -0.287902,1.395867 -1.153307,3.782621 L 56.519509,70.091387 C 55.786396,67.79834 55.389714,66.651539 55.329084,66.651539 h -1.885061 c -0.03652,0.05478 -0.601352,2.719341 -1.635841,7.703487 0.01653,-0.633467 0.05471,-2.20869 0.06401,-3.631119 0.002,-0.317263 -0.475336,-0.475718 -0.952568,-0.475716 -0.477229,3e-6 -0.954309,0.158463 -0.951052,0.475716 0.01872,1.823531 0,4.779881 0,4.779881 0,0.358289 0.03308,0.644799 0.09923,0.859773 0.300369,0.901113 0.788848,1.363513 1.465022,1.387756 0.34844,0.03777 0.605531,0.0022 1.463886,0.01439 l 1.571831,-7.409952 h 0.0659 c 0.551214,1.664663 0.892999,2.612937 1.025288,2.844445 h 1.819158 c 0.0441,0 0.253529,-0.529409 0.628354,-1.587738 h 0.03295 v 3.472799 c 0,0.540189 0.03308,0.959052 0.09923,1.256708 0.330729,0.948087 0.848856,1.422223 1.554408,1.422223 h 0.231419 c 0.125287,0 1.455242,0.004 2.356989,-0.0072 0.265142,0.0063 0.514838,0.0072 0.731375,0.0072 h 0.330653 c 0.446482,0 0.821354,-0.05527 1.124522,-0.165516 1.168573,-0.429947 1.752875,-1.168408 1.752875,-2.215714 v -0.429886 c 0,-1.361498 -0.771548,-2.475208 -2.314947,-3.340614 -1.102427,-0.545702 -1.653642,-1.22889 -1.653642,-2.050198 V 69.4297 c 0,-0.507117 0.341405,-0.804534 1.02491,-0.892724 2.197503,0.03218 2.606247,3.686503 2.844446,1.488126 v -0.264749 c 0,-0.644921 -0.09926,-1.184853 -0.297701,-1.620312 -0.407899,-0.992185 -1.245623,-1.488505 -2.513415,-1.488505 h -0.396934 c -0.286631,0 -0.48516,0.02218 -0.595403,0.06628 -1.411106,0.292143 -2.116479,1.041886 -2.116479,2.249044 v 0.330653 c 0,1.344961 0.727558,2.469575 2.182762,3.373566 1.168572,0.661456 1.752875,1.399917 1.752875,2.215713 v 0.03295 c 0,0.606335 -0.352687,0.959399 -1.05824,1.058618 h -0.231798 c -0.137367,0 -0.881706,-0.01579 -1.625235,-0.03939 -0.526867,-0.04948 -1.222716,-0.225102 -1.267312,-0.706756 0,-2.724746 -0.475064,-5.907628 -0.625324,-8.580682 z" />
                      <g
                         aria-label="S"
                         id="g2109"
                         style="font-size:16.9333px;font-family:Mistral;-inkscape-font-specification:Mistral;text-align:center;text-anchor:middle;fill:#e6e6e6;fill-opacity:1;stroke:none;stroke-width:0.379413;stroke-linecap:round;stroke-opacity:1" />
                      <g
                         id="g2113"
                         transform="rotate(180,31.188251,70.79619)"
                         style="fill:#e6e6e6;fill-opacity:1;stroke:none;stroke-opacity:1">
                        <g
                           aria-label="S"
                           id="g2111"
                           style="font-size:16.9333px;font-family:Mistral;-inkscape-font-specification:Mistral;text-align:center;text-anchor:middle;fill:#e6e6e6;fill-opacity:1;stroke:none;stroke-width:0.379413;stroke-linecap:round;stroke-opacity:1" />
                      </g>
                    </g>
                  </g>
                </g>
              </g>
            </g>
          </g>
        </g>
      </g>
    </g>
  </g>
</svg>
