<?xml version="1.0" encoding="UTF-8" standalone="no"?>
<!-- Created with Inkscape (http://www.inkscape.org/) -->

<svg
   width="210mm"
   height="297mm"
   viewBox="0 0 210 297"
   version="1.1"
   id="svg5"
   inkscape:version="1.2.2 (732a01da63, 2022-12-09)"
   sodipodi:docname="logo_and_graphic_scr.svg"
   xmlns:inkscape="http://www.inkscape.org/namespaces/inkscape"
   xmlns:sodipodi="http://sodipodi.sourceforge.net/DTD/sodipodi-0.dtd"
   xmlns:xlink="http://www.w3.org/1999/xlink"
   xmlns="http://www.w3.org/2000/svg"
   xmlns:svg="http://www.w3.org/2000/svg">
  <sodipodi:namedview
     id="namedview7"
     pagecolor="#a4a4a4"
     bordercolor="#000000"
     borderopacity="0.25"
     inkscape:showpageshadow="2"
     inkscape:pageopacity="0"
     inkscape:pagecheckerboard="0"
     inkscape:deskcolor="#d1d1d1"
     inkscape:document-units="mm"
     showgrid="false"
     showguides="true"
     inkscape:zoom="5.6568542"
     inkscape:cx="145.92916"
     inkscape:cy="141.68652"
     inkscape:window-width="2560"
     inkscape:window-height="1361"
     inkscape:window-x="2391"
     inkscape:window-y="-9"
     inkscape:window-maximized="1"
     inkscape:current-layer="g1443" />
  <defs
     id="defs2">
    <linearGradient
       inkscape:collect="always"
       id="linearGradient8918">
      <stop
         style="stop-color:#0066ff;stop-opacity:1;"
         offset="0"
         id="stop8914" />
      <stop
         style="stop-color:#0066ff;stop-opacity:0;"
         offset="1"
         id="stop8916" />
    </linearGradient>
    <linearGradient
       inkscape:collect="always"
       xlink:href="#linearGradient8918"
       id="linearGradient8920"
       x1="33.225613"
       y1="72.667068"
       x2="31.938219"
       y2="65.978653"
       gradientUnits="userSpaceOnUse" />
    <linearGradient
       inkscape:collect="always"
       xlink:href="#linearGradient8918"
       id="linearGradient8968"
       gradientUnits="userSpaceOnUse"
       x1="33.225613"
       y1="72.667068"
       x2="31.938219"
       y2="65.978653" />
    <linearGradient
       inkscape:collect="always"
       xlink:href="#linearGradient8918"
       id="linearGradient8970"
       gradientUnits="userSpaceOnUse"
       x1="33.225613"
       y1="72.667068"
       x2="31.938219"
       y2="65.978653" />
    <linearGradient
       inkscape:collect="always"
       xlink:href="#linearGradient8918"
       id="linearGradient8972"
       gradientUnits="userSpaceOnUse"
       x1="33.225613"
       y1="72.667068"
       x2="31.938219"
       y2="65.978653" />
    <linearGradient
       inkscape:collect="always"
       xlink:href="#linearGradient8918"
       id="linearGradient8974"
       gradientUnits="userSpaceOnUse"
       x1="33.225613"
       y1="72.667068"
       x2="31.938219"
       y2="65.978653" />
    <linearGradient
       inkscape:collect="always"
       xlink:href="#linearGradient8918"
       id="linearGradient8976"
       gradientUnits="userSpaceOnUse"
       x1="33.225613"
       y1="72.667068"
       x2="31.938219"
       y2="65.978653" />
    <linearGradient
       inkscape:collect="always"
       xlink:href="#linearGradient8918"
       id="linearGradient8978"
       gradientUnits="userSpaceOnUse"
       x1="33.225613"
       y1="72.667068"
       x2="31.938219"
       y2="65.978653" />
    <linearGradient
       inkscape:collect="always"
       xlink:href="#linearGradient8918"
       id="linearGradient8980"
       gradientUnits="userSpaceOnUse"
       x1="33.225613"
       y1="72.667068"
       x2="31.938219"
       y2="65.978653" />
    <linearGradient
       inkscape:collect="always"
       xlink:href="#linearGradient8918"
       id="linearGradient9225"
       gradientUnits="userSpaceOnUse"
       x1="33.225613"
       y1="72.667068"
       x2="31.938219"
       y2="65.978653" />
    <linearGradient
       inkscape:collect="always"
       xlink:href="#linearGradient8918"
       id="linearGradient9227"
       gradientUnits="userSpaceOnUse"
       x1="33.225613"
       y1="72.667068"
       x2="31.938219"
       y2="65.978653" />
  </defs>
  <g
     inkscape:label="Layer 1"
     inkscape:groupmode="layer"
     id="layer1">
    <g
       aria-label="WIMS"
       id="text790"
       style="font-size:16.9333px;font-family:Mistral;-inkscape-font-specification:Mistral;text-align:center;text-anchor:middle;fill:#050502;stroke-width:0.379413;stroke-linecap:round" />
    <g
       id="g9255"
       transform="matrix(1.3643782,0,0,1.3643782,-5.4082852,-23.937737)"
       inkscape:export-filename="SWIMS\wwwroot\WowDash\images\logo.png"
       inkscape:export-xdpi="96"
       inkscape:export-ydpi="96">
      <g
         id="g8996"
         style="fill:#333333;fill-opacity:1;stroke:#333333;stroke-width:1.5;stroke-dasharray:none;stroke-opacity:1"
         transform="translate(0,1.2116959)">
        <path
           d="m 21.888793,65.234163 h 0.23151 c 0.705554,0 1.223695,0.474044 1.554424,1.422133 0.06615,0.297656 0.09922,0.716579 0.09922,1.256768 v 3.47265 h 0.03307 c 0.374825,-1.058331 0.584287,-1.587497 0.628384,-1.587497 h 1.819007 c 0.132291,0.23151 0.474044,1.179598 1.025258,2.844265 h 0.06615 l 1.554424,-7.3091 0.03307,-0.03307 h 1.785934 l 0.06615,0.06615 c -1.499303,7.253979 -2.271003,10.914041 -2.3151,10.980187 h -1.885152 c -0.06063,0 -0.457508,-1.146526 -1.190623,-3.439577 l -0.165364,-0.330729 c -0.865407,2.386758 -1.048685,3.655929 -1.153416,3.782708 l -1.59163,-0.0124 c -0.15026,-2.67306 -0.62838,-5.510393 -0.62838,-8.235145 -0.05512,-0.595311 -1.102468,-1.068363 -1.598563,-1.068363 -0.589437,-0.0061 -1.597821,-1.807157 -1.269461,-1.791703 0.752519,-0.02388 2.746748,-0.01727 2.901088,-0.01727 z"
           style="font-size:16.9333px;font-family:Mistral;-inkscape-font-specification:OCEAN;text-align:center;text-anchor:middle;fill:#333333;fill-opacity:1;stroke:#333333;stroke-width:1.5;stroke-linecap:round;stroke-dasharray:none;stroke-opacity:1"
           id="path8982"
           sodipodi:nodetypes="cscsccsccccccccscccccccsc" />
        <path
           d="m 30.616886,65.304443 c 0.02824,-0.0099 0.192183,-0.0042 0.30799,-0.0041 0.769629,9e-4 1.143081,1.127234 1.258836,1.554424 0.110243,0.529166 0.176309,1.091506 0.165364,1.686716 l -0.08682,4.721149 c 0.07717,0.683505 0.08682,0.938442 0.582908,0.938442 0.418675,0.160032 0.68868,1.636424 -0.16536,2.079456 l -0.396874,0.06615 h -0.23151 c -0.705554,0 -1.212671,-0.46302 -1.521351,-1.38906 -0.06615,-0.214974 -0.09922,-0.501605 -0.09922,-0.859894 V 68.04536 c 0,-0.457508 -0.04134,-0.89848 -0.636652,-0.992187 -1.542776,1.047055 -1.30025,-1.74499 0.638724,-1.752857 z"
           style="font-size:16.9333px;font-family:Mistral;-inkscape-font-specification:OCEAN;text-align:center;text-anchor:middle;fill:#333333;fill-opacity:1;stroke:#333333;stroke-width:1.5;stroke-linecap:round;stroke-dasharray:none;stroke-opacity:1"
           id="path8984"
           sodipodi:nodetypes="cscsccccscssccc" />
        <path
           d="m 33.250178,65.234163 h 1.394044 c 0.0441,0.01103 0.529169,1.267795 1.455206,3.770305 h 0.03307 l 1.289841,-3.770305 h 1.918225 c 0.533069,2.107669 0.946987,4.350181 1.578784,6.334613 0.157949,0.496108 0.329516,0.976086 0.519966,1.433795 0.378113,0.890893 0.835154,1.733803 1.411433,2.429902 0.287049,0.344073 0.603514,0.603989 0.95466,0.872826 l -0.824587,-0.276858 -0.130056,0.301918 -0.477321,0.01253 -0.477321,0.01253 c -1.61169,0.04231 -2.494921,-1.717549 -3.183939,-5.135077 l -0.496093,-2.3151 h -0.03307 c -0.61736,1.780422 -0.970137,2.739535 -1.058331,2.877338 h -1.819007 c -0.06615,0 -0.286632,-0.54019 -0.661457,-1.62057 h -0.03307 v 4.16718 c 0,0.609781 -0.309025,1.158584 -0.651122,1.463991 -0.342098,0.305407 -0.766877,0.578258 -1.378725,0.516246 -1.478377,-0.004 -1.493554,-0.723346 -1.740462,-1.583362 v -0.959113 h 0.06615 c 0.09922,0.440971 0.38585,0.661457 0.859894,0.661457 h 0.03307 c 0.595311,-0.07166 0.892967,-0.336241 0.892967,-0.793748 0.343645,-2.718636 0.365507,-5.653243 0.557251,-8.400502 z"
           style="font-size:16.9333px;font-family:Mistral;-inkscape-font-specification:OCEAN;text-align:center;text-anchor:middle;fill:#333333;fill-opacity:1;stroke:#333333;stroke-width:1.5;stroke-linecap:round;stroke-dasharray:none;stroke-opacity:1"
           id="path8986"
           sodipodi:nodetypes="ccccccsccccccsccccsccssccccscccc" />
        <g
           aria-label="S"
           id="g8990"
           style="font-size:16.9333px;font-family:OCEAN;-inkscape-font-specification:OCEAN;text-align:center;text-anchor:middle;fill:#333333;fill-opacity:1;stroke:#333333;stroke-width:1.5;stroke-linecap:round;stroke-dasharray:none;stroke-opacity:1">
          <path
             d="m 43.529528,65.243082 h 0.330729 c 1.26228,0 2.122174,0.584287 2.579682,1.752861 0.15434,0.479557 0.23151,0.942577 0.23151,1.38906 -0.14087,2.449283 0.03442,-0.573505 -1.98437,-1.256768 -0.159852,-0.06615 -0.380338,-0.09922 -0.661457,-0.09922 h -0.23151 c -0.705554,0.09922 -1.058331,0.451996 -1.058331,1.058331 v 0.03307 c 0,0.815797 0.584287,1.554424 1.752861,2.215881 1.455205,0.903991 2.182808,2.028468 2.182808,3.373431 v 0.330729 c 0,1.207159 -0.705554,1.95681 -2.116663,2.248954 -0.212557,0.03824 -0.30868,0.06614 -0.595311,0.06614 h -0.396874 c -2.759836,-0.230466 -2.687654,-1.817249 -2.612758,-3.939802 0.679855,1.227886 0.696975,1.587134 2.186946,1.881017 0.683505,-0.08819 1.484145,-0.212217 1.484145,-0.719334 V 73.44514 c 0,-0.821309 -0.551214,-1.504814 -1.653642,-2.050516 -1.5434,-0.865407 -2.3151,-1.978859 -2.3151,-3.340358 v -0.429948 c 0,-1.047307 0.584287,-1.785934 1.752861,-2.215881 0.303168,-0.110243 0.677994,-0.165364 1.124477,-0.165364 z"
             id="path8988"
             sodipodi:nodetypes="cscccscsscsscscccsscsscsc"
             style="fill:#333333;fill-opacity:1;stroke:#333333;stroke-width:1.5;stroke-dasharray:none;stroke-opacity:1" />
        </g>
        <g
           aria-label="S"
           id="g8994"
           style="font-size:16.9333px;font-family:Mistral;-inkscape-font-specification:Mistral;text-align:center;text-anchor:middle;fill:#333333;fill-opacity:1;stroke:#333333;stroke-width:1.5;stroke-linecap:round;stroke-dasharray:none;stroke-opacity:1">
          <path
             d="m 18.469841,65.234163 h 0.330729 c 1.262281,0 3.604724,0.0092 4.062231,1.177735 -0.853363,0.541603 1.602614,1.024662 -0.634558,0.739369 -0.159852,-0.06615 -2.981189,-0.131171 -3.262308,-0.131171 h -0.23151 c -0.705554,0.09922 -1.058331,0.451996 -1.058331,1.058332 v 0.03307 c 0,0.815797 0.584287,1.554425 1.752861,2.215882 1.455205,0.903991 2.182808,2.028467 2.182808,3.37343 v 0.330729 c 0,1.207159 -0.705554,1.956811 -2.116662,2.248954 -0.110243,0.0441 -0.308681,0.06615 -0.595312,0.06615 h -0.396874 c -1.267793,0 -2.105638,-0.496093 -2.513537,-1.488279 -0.198437,-0.435459 -0.297655,-0.975649 -0.297655,-1.62057 v -0.264582 c -0.02982,-2.35609 0.294632,0.243381 1.686717,1.190622 0.518141,0.198437 0.903991,0.297656 1.15755,0.297656 0.683505,-0.08819 1.025258,-0.38585 1.025258,-0.892967 v -0.132291 c 0,-0.821309 -0.551214,-1.504815 -1.653642,-2.050517 -1.5434,-0.865407 -2.3151,-1.978859 -2.3151,-3.340358 V 67.61541 c 0,-1.047307 0.584287,-1.785934 1.752861,-2.215881 0.303168,-0.110243 0.677994,-0.165365 1.124477,-0.165365 z"
             style="-inkscape-font-specification:OCEAN;fill:#333333;fill-opacity:1;stroke:#333333;stroke-width:1.5;stroke-dasharray:none;stroke-opacity:1"
             id="path8992"
             sodipodi:nodetypes="csccscsscsscsscscccsscsscsc" />
        </g>
      </g>
      <g
         id="g8873"
         transform="translate(0,1.2127754)"
         style="stroke:#d7eef4;stroke-opacity:1">
        <path
           d="m 21.888793,65.234163 h 0.23151 c 0.705554,0 1.223695,0.474044 1.554424,1.422133 0.06615,0.297656 0.09922,0.716579 0.09922,1.256768 v 3.47265 h 0.03307 c 0.374825,-1.058331 0.584287,-1.587497 0.628384,-1.587497 h 1.819007 c 0.132291,0.23151 0.474044,1.179598 1.025258,2.844265 h 0.06615 l 1.554424,-7.3091 0.03307,-0.03307 h 1.785934 l 0.06615,0.06615 c -1.499303,7.253979 -2.271003,10.914041 -2.3151,10.980187 h -1.885152 c -0.06063,0 -0.457508,-1.146526 -1.190623,-3.439577 l -0.165364,-0.330729 c -0.865407,2.386758 -1.048685,3.655929 -1.153416,3.782708 l -1.59163,-0.0124 c -0.15026,-2.67306 -0.62838,-5.510393 -0.62838,-8.235145 -0.05512,-0.595311 -1.102468,-1.068363 -1.598563,-1.068363 -0.589437,-0.0061 -1.597821,-1.807157 -1.269461,-1.791703 0.752519,-0.02388 2.746748,-0.01727 2.901088,-0.01727 z"
           style="font-size:16.9333px;font-family:Mistral;-inkscape-font-specification:OCEAN;text-align:center;text-anchor:middle;fill:#004455;stroke:#d7eef4;stroke-width:0.379413;stroke-linecap:round;stroke-opacity:1"
           id="path3751"
           sodipodi:nodetypes="cscsccsccccccccscccccccsc" />
        <path
           d="m 30.616886,65.304443 c 0.02824,-0.0099 0.192183,-0.0042 0.30799,-0.0041 0.769629,9e-4 1.143081,1.127234 1.258836,1.554424 0.110243,0.529166 0.176309,1.091506 0.165364,1.686716 l -0.08682,4.721149 c 0.07717,0.683505 0.08682,0.938442 0.582908,0.938442 0.418675,0.160032 0.68868,1.636424 -0.16536,2.079456 l -0.396874,0.06615 h -0.23151 c -0.705554,0 -1.212671,-0.46302 -1.521351,-1.38906 -0.06615,-0.214974 -0.09922,-0.501605 -0.09922,-0.859894 V 68.04536 c 0,-0.457508 -0.04134,-0.89848 -0.636652,-0.992187 -1.542776,1.047055 -1.30025,-1.74499 0.638724,-1.752857 z"
           style="font-size:16.9333px;font-family:Mistral;-inkscape-font-specification:OCEAN;text-align:center;text-anchor:middle;fill:#004455;stroke:#d7eef4;stroke-width:0.379413;stroke-linecap:round;stroke-opacity:1"
           id="path3753"
           sodipodi:nodetypes="cscsccccscssccc" />
        <path
           d="m 33.250178,65.234163 h 1.394044 c 0.0441,0.01103 0.529169,1.267795 1.455206,3.770305 h 0.03307 l 1.289841,-3.770305 h 1.918225 c 0.533069,2.107669 0.946987,4.350181 1.578784,6.334613 0.157949,0.496108 0.329516,0.976086 0.519966,1.433795 0.378113,0.890893 0.835154,1.733803 1.411433,2.429902 0.287049,0.344073 0.603514,0.653598 0.95466,0.922435 l -1.909285,5.13e-4 c -1.612245,4.33e-4 -2.494921,-1.717549 -3.183939,-5.135077 l -0.496093,-2.3151 h -0.03307 c -0.61736,1.780422 -0.970137,2.739535 -1.058331,2.877338 h -1.819007 c -0.06615,0 -0.286632,-0.54019 -0.661457,-1.62057 h -0.03307 v 4.16718 c 0,0.609781 -0.309025,1.158584 -0.651122,1.463991 -0.342098,0.305407 -0.766877,0.578258 -1.378725,0.516246 -1.478377,-0.004 -1.493554,-0.723346 -1.740462,-1.583362 v -0.959113 h 0.06615 c 0.09922,0.440971 0.38585,0.661457 0.859894,0.661457 h 0.03307 c 0.595311,-0.07166 0.892967,-0.336241 0.892967,-0.793748 0.343645,-2.718636 0.365507,-5.653243 0.557251,-8.400502 z"
           style="font-size:16.9333px;font-family:Mistral;-inkscape-font-specification:OCEAN;text-align:center;text-anchor:middle;fill:#004455;stroke:#d7eef4;stroke-width:0.379413;stroke-linecap:round;stroke-opacity:1"
           id="path3755"
           sodipodi:nodetypes="ccccccscccsccccsccssccccscccc" />
        <g
           aria-label="S"
           id="text6674"
           style="font-size:16.9333px;font-family:OCEAN;-inkscape-font-specification:OCEAN;text-align:center;text-anchor:middle;fill:#004455;stroke:#d7eef4;stroke-width:0.379413;stroke-linecap:round;stroke-opacity:1">
          <path
             d="m 43.529528,65.243082 h 0.330729 c 1.26228,0 2.122174,0.584287 2.579682,1.752861 0.15434,0.479557 0.23151,0.942577 0.23151,1.38906 -0.14087,2.449283 0.03442,-0.573505 -1.98437,-1.256768 -0.159852,-0.06615 -0.380338,-0.09922 -0.661457,-0.09922 h -0.23151 c -0.705554,0.09922 -1.058331,0.451996 -1.058331,1.058331 v 0.03307 c 0,0.815797 0.584287,1.554424 1.752861,2.215881 1.455205,0.903991 2.182808,2.028468 2.182808,3.373431 v 0.330729 c 0,1.207159 -0.705554,1.95681 -2.116663,2.248954 -0.212557,0.03824 -0.30868,0.06614 -0.595311,0.06614 h -0.396874 c -2.759836,-0.230466 -2.687654,-1.817249 -2.612758,-3.939802 0.679855,1.227886 0.696975,1.587134 2.186946,1.881017 0.683505,-0.08819 1.484145,-0.212217 1.484145,-0.719334 V 73.44514 c 0,-0.821309 -0.551214,-1.504814 -1.653642,-2.050516 -1.5434,-0.865407 -2.3151,-1.978859 -2.3151,-3.340358 v -0.429948 c 0,-1.047307 0.584287,-1.785934 1.752861,-2.215881 0.303168,-0.110243 0.677994,-0.165364 1.124477,-0.165364 z"
             id="path6678"
             sodipodi:nodetypes="cscccscsscsscscccsscsscsc"
             style="fill:#004455;stroke:#d7eef4;stroke-opacity:1" />
        </g>
        <g
           aria-label="S"
           id="text3695"
           style="font-size:16.9333px;font-family:Mistral;-inkscape-font-specification:Mistral;text-align:center;text-anchor:middle;fill:#004455;stroke:#d7eef4;stroke-width:0.379413;stroke-linecap:round;stroke-opacity:1">
          <path
             d="m 18.469841,65.234163 h 0.330729 c 1.262281,0 3.604724,0.0092 4.062231,1.177735 -0.853363,0.541603 1.602614,1.024662 -0.634558,0.739369 -0.159852,-0.06615 -2.981189,-0.131171 -3.262308,-0.131171 h -0.23151 c -0.705554,0.09922 -1.058331,0.451996 -1.058331,1.058332 v 0.03307 c 0,0.815797 0.584287,1.554425 1.752861,2.215882 1.455205,0.903991 2.182808,2.028467 2.182808,3.37343 v 0.330729 c 0,1.207159 -0.705554,1.956811 -2.116662,2.248954 -0.110243,0.0441 -0.308681,0.06615 -0.595312,0.06615 h -0.396874 c -1.267793,0 -2.105638,-0.496093 -2.513537,-1.488279 -0.198437,-0.435459 -0.297655,-0.975649 -0.297655,-1.62057 v -0.264582 c -0.02982,-2.35609 0.294632,0.243381 1.686717,1.190622 0.518141,0.198437 0.903991,0.297656 1.15755,0.297656 0.683505,-0.08819 1.025258,-0.38585 1.025258,-0.892967 v -0.132291 c 0,-0.821309 -0.551214,-1.504815 -1.653642,-2.050517 -1.5434,-0.865407 -2.3151,-1.978859 -2.3151,-3.340358 V 67.61541 c 0,-1.047307 0.584287,-1.785934 1.752861,-2.215881 0.303168,-0.110243 0.677994,-0.165365 1.124477,-0.165365 z"
             style="-inkscape-font-specification:OCEAN;fill:#004455;stroke:#d7eef4;stroke-opacity:1"
             id="path3697"
             sodipodi:nodetypes="csccscsscsscsscscccsscsscsc" />
        </g>
      </g>
      <g
         id="g8889"
         style="fill:url(#linearGradient8920);fill-opacity:1"
         transform="translate(-2.7750658e-8,1.1135566)">
        <g
           id="g9223"
           style="fill:url(#linearGradient9227)"
           transform="translate(2.7750658e-8,0.09953292)">
          <path
             d="m 30.616886,65.304443 c 0.02824,-0.0099 0.192183,-0.0042 0.30799,-0.0041 0.769629,9e-4 1.143081,1.127234 1.258836,1.554424 0.110243,0.529166 0.176309,1.091506 0.165364,1.686716 l -0.08682,4.721149 c 0.07717,0.683505 0.08682,0.938442 0.582908,0.938442 0.418675,0.160032 0.68868,1.636424 -0.16536,2.079456 l -0.396874,0.06615 h -0.23151 c -0.705554,0 -1.212671,-0.46302 -1.521351,-1.38906 -0.06615,-0.214974 -0.09922,-0.501605 -0.09922,-0.859894 V 68.04536 c 0,-0.457508 -0.04134,-0.89848 -0.636652,-0.992187 -1.542776,1.047055 -1.30025,-1.74499 0.638724,-1.752857 z"
             style="font-size:16.9333px;font-family:Mistral;-inkscape-font-specification:OCEAN;text-align:center;text-anchor:middle;fill:url(#linearGradient8970);fill-opacity:1;stroke-width:0.379413;stroke-linecap:round"
             id="path8877"
             sodipodi:nodetypes="cscsccccscssccc" />
          <g
             id="g9211"
             style="fill:url(#linearGradient9225)">
            <path
               d="m 21.888793,65.234163 h 0.23151 c 0.705554,0 1.223695,0.474044 1.554424,1.422133 0.06615,0.297656 0.09922,0.716579 0.09922,1.256768 v 3.47265 h 0.03307 c 0.374825,-1.058331 0.584287,-1.587497 0.628384,-1.587497 h 1.819007 c 0.132291,0.23151 0.474044,1.179598 1.025258,2.844265 h 0.06615 l 1.554424,-7.3091 0.03307,-0.03307 h 1.785934 l 0.06615,0.06615 c -1.499303,7.253979 -2.271003,10.914041 -2.3151,10.980187 h -1.885152 c -0.06063,0 -0.457508,-1.146526 -1.190623,-3.439577 l -0.165364,-0.330729 c -0.865407,2.386758 -1.048685,3.655929 -1.153416,3.782708 l -1.59163,-0.0124 c -0.15026,-2.67306 -0.62838,-5.510393 -0.62838,-8.235145 -0.05512,-0.595311 -1.102468,-1.068363 -1.598563,-1.068363 -0.589437,-0.0061 -1.597821,-1.807157 -1.269461,-1.791703 0.752519,-0.02388 2.746748,-0.01727 2.901088,-0.01727 z"
               style="font-size:16.9333px;font-family:Mistral;-inkscape-font-specification:OCEAN;text-align:center;text-anchor:middle;fill:url(#linearGradient8968);fill-opacity:1;stroke-width:0.379413;stroke-linecap:round"
               id="path8875"
               sodipodi:nodetypes="cscsccsccccccccscccccccsc" />
            <path
               d="m 33.250178,65.234163 h 1.394044 c 0.0441,0.01103 0.529169,1.267795 1.455206,3.770305 h 0.03307 l 1.289841,-3.770305 h 1.918225 c 0.533069,2.107669 0.946987,4.350181 1.578784,6.334613 0.157949,0.496108 0.329516,0.976086 0.519966,1.433795 0.378113,0.890893 0.835154,1.733803 1.411433,2.429902 0.287049,0.344073 0.603514,0.653598 0.95466,0.922435 l -1.909285,5.13e-4 c -1.612245,4.33e-4 -2.494921,-1.717549 -3.183939,-5.135077 l -0.496093,-2.3151 h -0.03307 c -0.61736,1.780422 -0.970137,2.739535 -1.058331,2.877338 h -1.819007 c -0.06615,0 -0.286632,-0.54019 -0.661457,-1.62057 h -0.03307 v 4.16718 c 0,0.609781 -0.309025,1.158584 -0.651122,1.463991 -0.342098,0.305407 -0.766877,0.578258 -1.378725,0.516246 -1.478377,-0.004 -1.493554,-0.723346 -1.740462,-1.583362 v -0.959113 h 0.06615 c 0.09922,0.440971 0.38585,0.661457 0.859894,0.661457 h 0.03307 c 0.595311,-0.07166 0.892967,-0.336241 0.892967,-0.793748 0.343645,-2.718636 0.365507,-5.653243 0.557251,-8.400502 z"
               style="font-size:16.9333px;font-family:Mistral;-inkscape-font-specification:OCEAN;text-align:center;text-anchor:middle;fill:url(#linearGradient8972);fill-opacity:1;stroke-width:0.379413;stroke-linecap:round"
               id="path8879"
               sodipodi:nodetypes="ccccccscccsccccsccssccccscccc" />
            <g
               aria-label="S"
               id="g8883"
               style="font-size:16.9333px;font-family:OCEAN;-inkscape-font-specification:OCEAN;text-align:center;text-anchor:middle;fill:url(#linearGradient8976);fill-opacity:1;stroke-width:0.379413;stroke-linecap:round">
              <path
                 d="m 43.529528,65.243082 h 0.330729 c 1.26228,0 2.122174,0.584287 2.579682,1.752861 0.15434,0.479557 0.23151,0.942577 0.23151,1.38906 -0.14087,2.449283 0.03442,-0.573505 -1.98437,-1.256768 -0.159852,-0.06615 -0.380338,-0.09922 -0.661457,-0.09922 h -0.23151 c -0.705554,0.09922 -1.058331,0.451996 -1.058331,1.058331 v 0.03307 c 0,0.815797 0.584287,1.554424 1.752861,2.215881 1.455205,0.903991 2.182808,2.028468 2.182808,3.373431 v 0.330729 c 0,1.207159 -0.705554,1.95681 -2.116663,2.248954 -0.212557,0.03824 -0.30868,0.06614 -0.595311,0.06614 h -0.396874 c -2.759836,-0.230466 -2.687654,-1.817249 -2.612758,-3.939802 0.679855,1.227886 0.696975,1.587134 2.186946,1.881017 0.683505,-0.08819 1.484145,-0.212217 1.484145,-0.719334 V 73.44514 c 0,-0.821309 -0.551214,-1.504814 -1.653642,-2.050516 -1.5434,-0.865407 -2.3151,-1.978859 -2.3151,-3.340358 v -0.429948 c 0,-1.047307 0.584287,-1.785934 1.752861,-2.215881 0.303168,-0.110243 0.677994,-0.165364 1.124477,-0.165364 z"
                 id="path8881"
                 sodipodi:nodetypes="cscccscsscsscscccsscsscsc"
                 style="fill:url(#linearGradient8974);fill-opacity:1" />
            </g>
            <g
               aria-label="S"
               id="g8887"
               style="font-size:16.9333px;font-family:Mistral;-inkscape-font-specification:Mistral;text-align:center;text-anchor:middle;fill:url(#linearGradient8980);fill-opacity:1;stroke-width:0.379413;stroke-linecap:round">
              <path
                 d="m 18.469841,65.234163 h 0.330729 c 5.261714,0.783365 5.871619,1.964312 0.165365,1.785933 h -0.23151 c -0.705554,0.09922 -1.058331,0.451996 -1.058331,1.058332 v 0.03307 c 0,0.815797 0.584287,1.554425 1.752861,2.215882 1.455205,0.903991 2.182808,2.028467 2.182808,3.37343 v 0.330729 c 0,1.207159 -0.705554,1.956811 -2.116662,2.248954 -0.110243,0.0441 -0.308681,0.06615 -0.595312,0.06615 h -0.396874 c -1.267793,0 -2.105638,-0.496093 -2.513537,-1.488279 -0.198437,-0.435459 -0.297655,-0.975649 -0.297655,-1.62057 v -0.264582 c -0.02982,-2.35609 0.294632,0.243381 1.686717,1.190622 0.518141,0.198437 0.903991,0.297656 1.15755,0.297656 0.683505,-0.08819 1.025258,-0.38585 1.025258,-0.892967 v -0.132291 c 0,-0.821309 -0.551214,-1.504815 -1.653642,-2.050517 -1.5434,-0.865407 -2.3151,-1.978859 -2.3151,-3.340358 V 67.61541 c 0,-1.047307 0.584287,-1.785934 1.752861,-2.215881 0.303168,-0.110243 0.677994,-0.165365 1.124477,-0.165365 z"
                 style="-inkscape-font-specification:OCEAN;fill:url(#linearGradient8978);fill-opacity:1"
                 id="path8885"
                 sodipodi:nodetypes="ccccsscsscsscscccsscsscsc" />
            </g>
          </g>
        </g>
      </g>
    </g>
    <g
       id="g934"
       transform="matrix(1.3643782,0,0,1.3643782,-5.4082852,-45.699771)"
       inkscape:export-filename="SWIMS\wwwroot\WowDash\images\logo.png"
       inkscape:export-xdpi="96"
       inkscape:export-ydpi="96">
      <g
         id="g912"
         transform="translate(0,-17.024685)"
         style="stroke:none;stroke-opacity:1"
         inkscape:export-filename="SWIMS\wwwroot\WowDash\images\logo.png"
         inkscape:export-xdpi="96"
         inkscape:export-ydpi="96">
        <g
           id="g1501">
          <g
             id="g1485">
            <g
               id="g1470">
              <g
                 id="g1456">
                <g
                   id="g1443">
                  <g
                     id="g1819"
                     style="fill:#333333;fill-opacity:1;stroke:none"
                     transform="matrix(0.53799273,0,0,0.53799273,2.76637,32.199394)"
                     inkscape:export-filename="SWIMS\wwwroot\WowDash\images\logo.png"
                     inkscape:export-xdpi="96"
                     inkscape:export-ydpi="96">
                    <g
                       id="g1817"
                       style="fill:#333333;fill-opacity:1;stroke:none;stroke-opacity:1">
                      <path
                         id="path1809"
                         style="font-size:16.9333px;font-family:Mistral;-inkscape-font-specification:OCEAN;text-align:center;text-anchor:middle;fill:#333333;fill-opacity:1;stroke:none;stroke-width:0.379413;stroke-linecap:round;stroke-opacity:1"
                         d="m 41.014059,66.639419 c -0.494484,-5.53e-4 -1.317833,-9.3e-5 -1.941495,0.0076 -0.266293,-0.0064 -0.517034,-0.0068 -0.734405,-0.0068 h -0.330653 c -0.446479,0 -0.821354,0.05489 -1.124522,0.165137 -1.16857,0.429947 -1.752875,1.16879 -1.752875,2.216093 v 0.429886 c 0,1.361495 0.77193,2.474832 2.315326,3.340235 1.102424,0.545702 1.653642,1.229272 1.653642,2.050577 v 0.132185 c 0,0.507117 -0.341784,0.804913 -1.025289,0.893103 -2.197493,-0.03218 -2.606247,-3.686497 -2.844446,-1.488126 v 0.264328 c 0,0.644917 0.09927,1.185231 0.297701,1.62069 0.407899,0.992182 1.245626,1.488126 2.513415,1.488126 h 0.396935 c 0.286627,0 0.485159,-0.0218 0.595402,-0.0659 1.4111,-0.292143 2.11648,-1.041889 2.11648,-2.249044 v -0.330653 c 0,-1.344955 -0.727565,-2.469575 -2.182762,-3.373566 -1.16857,-0.661453 -1.752876,-1.39992 -1.752876,-2.215713 v -0.03333 c 0,-0.606336 0.353065,-0.959024 1.058619,-1.05824 h 0.231419 c 0.137342,0 0.881826,0.0158 1.625235,0.03939 0.526919,0.04946 1.223095,0.225102 1.267691,0.706756 0,2.72474 0.475064,5.907255 0.625324,8.580303 l 1.591526,0.0125 c 0.104731,-0.126779 0.287904,-1.395871 1.153307,-3.782621 l 0.165516,0.330653 c 0.733111,2.293043 1.129795,3.439469 1.190425,3.439469 h 1.88544 c 0.03904,-0.05856 0.681994,-3.10127 1.861578,-8.793542 0.03883,0.130301 0.06169,0.280496 0.09583,0.44996 0.06957,0.345351 1.91977,0.384564 1.914225,0.07878 -0.0075,-0.411738 -0.07689,-0.83593 -0.158319,-1.226785 -0.115755,-0.42719 -0.489355,-1.553509 -1.25898,-1.554409 -0.0579,-5e-5 -0.127735,-0.0017 -0.186726,-0.0019 -0.03543,-1.21e-4 -0.06568,1.88e-4 -0.08825,0.0015 h -0.217026 -1.499489 l -0.03295,0.03333 -1.554408,7.308825 h -0.06628 C 46.26613,72.383553 45.924347,71.435655 45.792056,71.204149 h -1.819158 c -0.0441,0 -0.253529,0.529032 -0.628354,1.587359 h -0.03295 v -3.47242 c 0,-0.540189 -0.03308,-0.959052 -0.09923,-1.256708 -0.330729,-0.948085 -0.848858,-1.422223 -1.554408,-1.422223 h -0.231419 c -0.03859,0 -0.192043,-5.11e-4 -0.412464,-7.57e-4 z m 16.824273,0 c -0.104731,0.126779 -0.287902,1.395867 -1.153307,3.782621 L 56.519509,70.091387 C 55.786396,67.79834 55.389714,66.651539 55.329084,66.651539 h -1.885061 c -0.03652,0.05478 -0.601352,2.719341 -1.635841,7.703487 0.01653,-0.633467 0.05471,-2.20869 0.06401,-3.631119 0.002,-0.317263 -0.475336,-0.475718 -0.952568,-0.475716 -0.477229,3e-6 -0.954309,0.158463 -0.951052,0.475716 0.01872,1.823531 0,4.779881 0,4.779881 0,0.358289 0.03308,0.644799 0.09923,0.859773 0.300369,0.901113 0.788848,1.363513 1.465022,1.387756 0.34844,0.03777 0.605531,0.0022 1.463886,0.01439 l 1.571831,-7.409952 h 0.0659 c 0.551214,1.664663 0.892999,2.612937 1.025288,2.844445 h 1.819158 c 0.0441,0 0.253529,-0.529409 0.628354,-1.587738 h 0.03295 v 3.472799 c 0,0.540189 0.03308,0.959052 0.09923,1.256708 0.330729,0.948087 0.848856,1.422223 1.554408,1.422223 h 0.231419 c 0.125287,0 1.455242,0.004 2.356989,-0.0072 0.265142,0.0063 0.514838,0.0072 0.731375,0.0072 h 0.330653 c 0.446482,0 0.821354,-0.05527 1.124522,-0.165516 1.168573,-0.429947 1.752875,-1.168408 1.752875,-2.215714 v -0.429886 c 0,-1.361498 -0.771548,-2.475208 -2.314947,-3.340614 -1.102427,-0.545702 -1.653642,-1.22889 -1.653642,-2.050198 V 69.4297 c 0,-0.507117 0.341405,-0.804534 1.02491,-0.892724 2.197503,0.03218 2.606247,3.686503 2.844446,1.488126 v -0.264749 c 0,-0.644921 -0.09926,-1.184853 -0.297701,-1.620312 -0.407899,-0.992185 -1.245623,-1.488505 -2.513415,-1.488505 h -0.396934 c -0.286631,0 -0.48516,0.02218 -0.595403,0.06628 -1.411106,0.292143 -2.116479,1.041886 -2.116479,2.249044 v 0.330653 c 0,1.344961 0.727558,2.469575 2.182762,3.373566 1.168572,0.661456 1.752875,1.399917 1.752875,2.215713 v 0.03295 c 0,0.606335 -0.352687,0.959399 -1.05824,1.058618 h -0.231798 c -0.137367,0 -0.881706,-0.01579 -1.625235,-0.03939 -0.526867,-0.04948 -1.222716,-0.225102 -1.267312,-0.706756 0,-2.724746 -0.475064,-5.907628 -0.625324,-8.580682 z" />
                      <g
                         aria-label="S"
                         id="g1811"
                         style="font-size:16.9333px;font-family:Mistral;-inkscape-font-specification:Mistral;text-align:center;text-anchor:middle;fill:#333333;fill-opacity:1;stroke:none;stroke-width:0.379413;stroke-linecap:round;stroke-opacity:1" />
                      <g
                         id="g1815"
                         transform="rotate(180,31.188251,70.79619)"
                         style="fill:#333333;fill-opacity:1;stroke:none;stroke-opacity:1">
                        <g
                           aria-label="S"
                           id="g1813"
                           style="font-size:16.9333px;font-family:Mistral;-inkscape-font-specification:Mistral;text-align:center;text-anchor:middle;fill:#333333;fill-opacity:1;stroke:none;stroke-width:0.379413;stroke-linecap:round;stroke-opacity:1" />
                      </g>
                    </g>
                  </g>
                  <g
                     id="g2117"
                     style="fill:#e6e6e6;fill-opacity:1;stroke:none"
                     transform="matrix(0.53799408,0,0,0.53799408,2.8970815,24.41753)"
                     inkscape:export-filename="SWIMS\wwwroot\WowDash\images\logo-light.png"
                     inkscape:export-xdpi="96"
                     inkscape:export-ydpi="96">
                    <g
                       id="g2115"
                       style="fill:#e6e6e6;fill-opacity:1;stroke:none;stroke-opacity:1">
                      <path
                         id="path2107"
                         style="font-size:16.9333px;font-family:Mistral;-inkscape-font-specification:OCEAN;text-align:center;text-anchor:middle;fill:#e6e6e6;fill-opacity:1;stroke:none;stroke-width:0.379413;stroke-linecap:round;stroke-opacity:1"
                         d="m 41.014059,66.639419 c -0.494484,-5.53e-4 -1.317833,-9.3e-5 -1.941495,0.0076 -0.266293,-0.0064 -0.517034,-0.0068 -0.734405,-0.0068 h -0.330653 c -0.446479,0 -0.821354,0.05489 -1.124522,0.165137 -1.16857,0.429947 -1.752875,1.16879 -1.752875,2.216093 v 0.429886 c 0,1.361495 0.77193,2.474832 2.315326,3.340235 1.102424,0.545702 1.653642,1.229272 1.653642,2.050577 v 0.132185 c 0,0.507117 -0.341784,0.804913 -1.025289,0.893103 -2.197493,-0.03218 -2.606247,-3.686497 -2.844446,-1.488126 v 0.264328 c 0,0.644917 0.09927,1.185231 0.297701,1.62069 0.407899,0.992182 1.245626,1.488126 2.513415,1.488126 h 0.396935 c 0.286627,0 0.485159,-0.0218 0.595402,-0.0659 1.4111,-0.292143 2.11648,-1.041889 2.11648,-2.249044 v -0.330653 c 0,-1.344955 -0.727565,-2.469575 -2.182762,-3.373566 -1.16857,-0.661453 -1.752876,-1.39992 -1.752876,-2.215713 v -0.03333 c 0,-0.606336 0.353065,-0.959024 1.058619,-1.05824 h 0.231419 c 0.137342,0 0.881826,0.0158 1.625235,0.03939 0.526919,0.04946 1.223095,0.225102 1.267691,0.706756 0,2.72474 0.475064,5.907255 0.625324,8.580303 l 1.591526,0.0125 c 0.104731,-0.126779 0.287904,-1.395871 1.153307,-3.782621 l 0.165516,0.330653 c 0.733111,2.293043 1.129795,3.439469 1.190425,3.439469 h 1.88544 c 0.03904,-0.05856 0.681994,-3.10127 1.861578,-8.793542 0.03883,0.130301 0.06169,0.280496 0.09583,0.44996 0.06957,0.345351 1.91977,0.384564 1.914225,0.07878 -0.0075,-0.411738 -0.07689,-0.83593 -0.158319,-1.226785 -0.115755,-0.42719 -0.489355,-1.553509 -1.25898,-1.554409 -0.0579,-5e-5 -0.127735,-0.0017 -0.186726,-0.0019 -0.03543,-1.21e-4 -0.06568,1.88e-4 -0.08825,0.0015 h -0.217026 -1.499489 l -0.03295,0.03333 -1.554408,7.308825 h -0.06628 C 46.26613,72.383553 45.924347,71.435655 45.792056,71.204149 h -1.819158 c -0.0441,0 -0.253529,0.529032 -0.628354,1.587359 h -0.03295 v -3.47242 c 0,-0.540189 -0.03308,-0.959052 -0.09923,-1.256708 -0.330729,-0.948085 -0.848858,-1.422223 -1.554408,-1.422223 h -0.231419 c -0.03859,0 -0.192043,-5.11e-4 -0.412464,-7.57e-4 z m 16.824273,0 c -0.104731,0.126779 -0.287902,1.395867 -1.153307,3.782621 L 56.519509,70.091387 C 55.786396,67.79834 55.389714,66.651539 55.329084,66.651539 h -1.885061 c -0.03652,0.05478 -0.601352,2.719341 -1.635841,7.703487 0.01653,-0.633467 0.05471,-2.20869 0.06401,-3.631119 0.002,-0.317263 -0.475336,-0.475718 -0.952568,-0.475716 -0.477229,3e-6 -0.954309,0.158463 -0.951052,0.475716 0.01872,1.823531 0,4.779881 0,4.779881 0,0.358289 0.03308,0.644799 0.09923,0.859773 0.300369,0.901113 0.788848,1.363513 1.465022,1.387756 0.34844,0.03777 0.605531,0.0022 1.463886,0.01439 l 1.571831,-7.409952 h 0.0659 c 0.551214,1.664663 0.892999,2.612937 1.025288,2.844445 h 1.819158 c 0.0441,0 0.253529,-0.529409 0.628354,-1.587738 h 0.03295 v 3.472799 c 0,0.540189 0.03308,0.959052 0.09923,1.256708 0.330729,0.948087 0.848856,1.422223 1.554408,1.422223 h 0.231419 c 0.125287,0 1.455242,0.004 2.356989,-0.0072 0.265142,0.0063 0.514838,0.0072 0.731375,0.0072 h 0.330653 c 0.446482,0 0.821354,-0.05527 1.124522,-0.165516 1.168573,-0.429947 1.752875,-1.168408 1.752875,-2.215714 v -0.429886 c 0,-1.361498 -0.771548,-2.475208 -2.314947,-3.340614 -1.102427,-0.545702 -1.653642,-1.22889 -1.653642,-2.050198 V 69.4297 c 0,-0.507117 0.341405,-0.804534 1.02491,-0.892724 2.197503,0.03218 2.606247,3.686503 2.844446,1.488126 v -0.264749 c 0,-0.644921 -0.09926,-1.184853 -0.297701,-1.620312 -0.407899,-0.992185 -1.245623,-1.488505 -2.513415,-1.488505 h -0.396934 c -0.286631,0 -0.48516,0.02218 -0.595403,0.06628 -1.411106,0.292143 -2.116479,1.041886 -2.116479,2.249044 v 0.330653 c 0,1.344961 0.727558,2.469575 2.182762,3.373566 1.168572,0.661456 1.752875,1.399917 1.752875,2.215713 v 0.03295 c 0,0.606335 -0.352687,0.959399 -1.05824,1.058618 h -0.231798 c -0.137367,0 -0.881706,-0.01579 -1.625235,-0.03939 -0.526867,-0.04948 -1.222716,-0.225102 -1.267312,-0.706756 0,-2.724746 -0.475064,-5.907628 -0.625324,-8.580682 z" />
                      <g
                         aria-label="S"
                         id="g2109"
                         style="font-size:16.9333px;font-family:Mistral;-inkscape-font-specification:Mistral;text-align:center;text-anchor:middle;fill:#e6e6e6;fill-opacity:1;stroke:none;stroke-width:0.379413;stroke-linecap:round;stroke-opacity:1" />
                      <g
                         id="g2113"
                         transform="rotate(180,31.188251,70.79619)"
                         style="fill:#e6e6e6;fill-opacity:1;stroke:none;stroke-opacity:1">
                        <g
                           aria-label="S"
                           id="g2111"
                           style="font-size:16.9333px;font-family:Mistral;-inkscape-font-specification:Mistral;text-align:center;text-anchor:middle;fill:#e6e6e6;fill-opacity:1;stroke:none;stroke-width:0.379413;stroke-linecap:round;stroke-opacity:1" />
                      </g>
                    </g>
                  </g>
                </g>
              </g>
            </g>
          </g>
        </g>
      </g>
      <g
         id="g1873"
         transform="translate(0,-1.5108976)"
         style="stroke:none;stroke-opacity:1">
        <g
           id="g1871"
           transform="translate(0.4848057,1.866502)">
          <g
             id="g1869"
             transform="translate(-1.7453005,-3.1269968)">
            <g
               id="g1865"
               transform="translate(-0.02424029,-1.3332157)">
              <g
                 id="g1863"
                 transform="translate(1.3816963,1.7210602)">
                <g
                   id="g1861"
                   style="stroke:#0048b4;stroke-width:0.193495;stroke-dasharray:none;stroke-opacity:1"
                   transform="translate(1.2683948,5.0050173)">
                  <g
                     id="g1859"
                     style="fill:#0066ff;fill-opacity:1;stroke:#0048b4;stroke-width:0.193495;stroke-dasharray:none;stroke-opacity:1"
                     transform="translate(-2.7424752,-4.5250841)">
                    <path
                       id="path1851"
                       style="font-size:16.9333px;font-family:Mistral;-inkscape-font-specification:OCEAN;text-align:center;text-anchor:middle;fill:none;fill-opacity:1;stroke:#0048b4;stroke-width:0.193495;stroke-linecap:round;stroke-dasharray:none;stroke-opacity:1"
                       d="m 21.476389,65.233482 c -0.494484,-5.53e-4 -1.317833,-9.3e-5 -1.941495,0.0076 -0.266293,-0.0064 -0.517034,-0.0068 -0.734405,-0.0068 h -0.330653 c -0.446479,0 -0.821354,0.05489 -1.124522,0.165137 -1.16857,0.429947 -1.752875,1.16879 -1.752875,2.216093 v 0.429886 c 0,1.361495 0.77193,2.474832 2.315326,3.340235 1.102424,0.545702 1.653642,1.229272 1.653642,2.050577 v 0.132185 c 0,0.507117 -0.341784,0.804913 -1.025289,0.893103 -2.197493,-0.03218 -2.606247,-3.686497 -2.844446,-1.488126 V 73.2377 c 0,0.644917 0.09927,1.185231 0.297701,1.62069 0.407899,0.992182 1.245626,1.488126 2.513415,1.488126 h 0.396935 c 0.286627,0 0.485159,-0.0218 0.595402,-0.0659 1.4111,-0.292143 2.11648,-1.041889 2.11648,-2.249044 v -0.330653 c 0,-1.344955 -0.727565,-2.469575 -2.182762,-3.373566 -1.16857,-0.661453 -1.752876,-1.39992 -1.752876,-2.215713 v -0.03333 c 0,-0.606336 0.353065,-0.959024 1.058619,-1.05824 h 0.231419 c 0.137342,0 0.881826,0.0158 1.625235,0.03939 0.526919,0.04946 1.223095,0.225102 1.267691,0.706756 0,2.72474 0.475064,5.907255 0.625324,8.580303 l 1.591526,0.0125 c 0.104731,-0.126779 0.287904,-1.395871 1.153307,-3.782621 l 0.165516,0.330653 c 0.733111,2.293043 1.129795,3.439469 1.190425,3.439469 h 1.88544 c 0.03904,-0.05856 0.681994,-3.10127 1.861578,-8.793542 0.03883,0.130301 0.06169,0.280496 0.09583,0.44996 0.06957,0.345351 1.91977,0.384564 1.914225,0.07878 -0.0075,-0.411738 -0.07689,-0.83593 -0.158319,-1.226785 -0.115755,-0.42719 -0.489355,-1.553509 -1.25898,-1.554409 -0.0579,-5e-5 -0.127735,-0.0017 -0.186726,-0.0019 -0.03543,-1.21e-4 -0.06568,1.88e-4 -0.08825,0.0015 h -0.217026 -1.499489 l -0.03295,0.03333 -1.554408,7.308825 h -0.06628 C 26.72846,70.977616 26.386677,70.029718 26.254386,69.798212 h -1.819158 c -0.0441,0 -0.253529,0.529032 -0.628354,1.587359 h -0.03295 v -3.47242 c 0,-0.540189 -0.03308,-0.959052 -0.09923,-1.256708 -0.330729,-0.948085 -0.848858,-1.422223 -1.554408,-1.422223 h -0.231419 c -0.03859,0 -0.192043,-5.11e-4 -0.412464,-7.57e-4 z m 16.824273,0 c -0.104731,0.126779 -0.287902,1.395867 -1.153307,3.782621 L 36.981839,68.68545 c -0.733113,-2.293047 -1.129795,-3.439848 -1.190425,-3.439848 h -1.885061 c -0.03652,0.05478 -0.601352,2.719341 -1.635841,7.703487 0.01653,-0.633467 0.05471,-2.20869 0.06401,-3.631119 0.002,-0.317263 -0.475336,-0.475718 -0.952568,-0.475716 -0.477229,3e-6 -0.954309,0.158463 -0.951052,0.475716 0.01872,1.823531 0,4.779881 0,4.779881 0,0.358289 0.03308,0.644799 0.09923,0.859773 0.300369,0.901113 0.788848,1.363513 1.465022,1.387756 0.34844,0.03777 0.605531,0.0022 1.463886,0.01439 l 1.571831,-7.409952 h 0.0659 c 0.551214,1.664663 0.892999,2.612937 1.025288,2.844445 h 1.819158 c 0.0441,0 0.253529,-0.529409 0.628354,-1.587738 h 0.03295 v 3.472799 c 0,0.540189 0.03308,0.959052 0.09923,1.256708 0.330729,0.948087 0.848856,1.422223 1.554408,1.422223 h 0.231419 c 0.125287,0 1.455242,0.004 2.356989,-0.0072 0.265142,0.0063 0.514838,0.0072 0.731375,0.0072 h 0.330653 c 0.446482,0 0.821354,-0.05527 1.124522,-0.165516 1.168573,-0.429947 1.752875,-1.168408 1.752875,-2.215714 v -0.429886 c 0,-1.361498 -0.771548,-2.475208 -2.314947,-3.340614 -1.102427,-0.545702 -1.653642,-1.22889 -1.653642,-2.050198 v -0.132564 c 0,-0.507117 0.341405,-0.804534 1.02491,-0.892724 2.197503,0.03218 2.606247,3.686503 2.844446,1.488126 v -0.264749 c 0,-0.644921 -0.09926,-1.184853 -0.297701,-1.620312 -0.407899,-0.992185 -1.245623,-1.488505 -2.513415,-1.488505 h -0.396934 c -0.286631,0 -0.48516,0.02218 -0.595403,0.06628 -1.411106,0.292143 -2.116479,1.041886 -2.116479,2.249044 v 0.330653 c 0,1.344961 0.727558,2.469575 2.182762,3.373566 1.168572,0.661456 1.752875,1.399917 1.752875,2.215713 v 0.03295 c 0,0.606335 -0.352687,0.959399 -1.05824,1.058618 h -0.231798 c -0.137367,0 -0.881706,-0.01579 -1.625235,-0.03939 -0.526867,-0.04948 -1.222716,-0.225102 -1.267312,-0.706756 0,-2.724746 -0.475064,-5.907628 -0.625324,-8.580682 z" />
                    <g
                       aria-label="S"
                       id="g1853"
                       style="font-size:16.9333px;font-family:Mistral;-inkscape-font-specification:Mistral;text-align:center;text-anchor:middle;fill:#0066ff;fill-opacity:1;stroke:#0048b4;stroke-width:0.193495;stroke-linecap:round;stroke-dasharray:none;stroke-opacity:1" />
                    <g
                       id="g1857"
                       transform="rotate(180,31.188251,70.79619)"
                       style="fill:#0066ff;fill-opacity:1;stroke:#0048b4;stroke-width:0.193495;stroke-dasharray:none;stroke-opacity:1">
                      <g
                         aria-label="S"
                         id="g1855"
                         style="font-size:16.9333px;font-family:Mistral;-inkscape-font-specification:Mistral;text-align:center;text-anchor:middle;fill:#0066ff;fill-opacity:1;stroke:#0048b4;stroke-width:0.193495;stroke-linecap:round;stroke-dasharray:none;stroke-opacity:1" />
                    </g>
                  </g>
                </g>
              </g>
            </g>
          </g>
        </g>
      </g>
    </g>
  </g>
</svg>
