<?xml version="1.0" encoding="UTF-8" standalone="no"?>
<!-- Created with Inkscape (http://www.inkscape.org/) -->

<svg
   width="22.895458mm"
   height="8.1697273mm"
   viewBox="0 0 22.895458 8.1697273"
   version="1.1"
   id="svg5"
   inkscape:version="1.2.2 (732a01da63, 2022-12-09)"
   sodipodi:docname="logo-light.svg"
   xmlns:inkscape="http://www.inkscape.org/namespaces/inkscape"
   xmlns:sodipodi="http://sodipodi.sourceforge.net/DTD/sodipodi-0.dtd"
   xmlns="http://www.w3.org/2000/svg"
   xmlns:svg="http://www.w3.org/2000/svg">
  <sodipodi:namedview
     id="namedview7"
     pagecolor="#a4a4a4"
     bordercolor="#000000"
     borderopacity="0.25"
     inkscape:showpageshadow="2"
     inkscape:pageopacity="0"
     inkscape:pagecheckerboard="0"
     inkscape:deskcolor="#d1d1d1"
     inkscape:document-units="mm"
     showgrid="false"
     showguides="true"
     inkscape:zoom="4"
     inkscape:cx="-33.375"
     inkscape:cy="-6.1250001"
     inkscape:window-width="2560"
     inkscape:window-height="1361"
     inkscape:window-x="2391"
     inkscape:window-y="-9"
     inkscape:window-maximized="1"
     inkscape:current-layer="g912" />
  <defs
     id="defs2" />
  <g
     inkscape:label="Layer 1"
     inkscape:groupmode="layer"
     id="layer1"
     transform="translate(-24.330892,-13.301904)">
    <g
       aria-label="WIMS"
       id="text790"
       style="font-size:16.9333px;font-family:Mistral;-inkscape-font-specification:Mistral;text-align:center;text-anchor:middle;fill:#050502;stroke-width:0.379413;stroke-linecap:round" />
    <g
       id="g934"
       transform="matrix(1.3643782,0,0,1.3643782,-5.4082852,-45.699771)"
       inkscape:export-filename="SWIMS\wwwroot\WowDash\images\logo.png"
       inkscape:export-xdpi="96"
       inkscape:export-ydpi="96">
      <g
         id="g912"
         transform="translate(0,-17.024685)"
         style="stroke:none;stroke-opacity:1"
         inkscape:export-filename="SWIMS\wwwroot\WowDash\images\logo.png"
         inkscape:export-xdpi="96"
         inkscape:export-ydpi="96">
        <g
           aria-label="S"
           id="g1811"
           style="font-size:16.9333px;font-family:Mistral;-inkscape-font-specification:Mistral;text-align:center;text-anchor:middle;fill:#333333;fill-opacity:1;stroke:none;stroke-width:0.379413;stroke-linecap:round;stroke-opacity:1"
           transform="matrix(0.53799273,0,0,0.53799273,2.76637,32.199394)" />
        <g
           id="g1815"
           transform="matrix(-0.53799273,0,0,-0.53799273,36.324475,108.37507)"
           style="fill:#333333;fill-opacity:1;stroke:none;stroke-opacity:1">
          <g
             aria-label="S"
             id="g1813"
             style="font-size:16.9333px;font-family:Mistral;-inkscape-font-specification:Mistral;text-align:center;text-anchor:middle;fill:#333333;fill-opacity:1;stroke:none;stroke-width:0.379413;stroke-linecap:round;stroke-opacity:1" />
        </g>
        <path
           id="path2107"
           style="font-size:16.9333px;font-family:Mistral;-inkscape-font-specification:OCEAN;text-align:center;text-anchor:middle;fill:#e6e6e6;fill-opacity:1;stroke:none;stroke-width:0.204122;stroke-linecap:round;stroke-opacity:1"
           d="m 24.962402,60.269143 c -0.266029,-2.98e-4 -0.708986,-5e-5 -1.044512,0.0041 -0.143264,-0.0034 -0.278162,-0.0037 -0.395106,-0.0037 h -0.177889 c -0.240203,0 -0.441884,0.02953 -0.604986,0.08884 -0.628684,0.231309 -0.943037,0.628802 -0.943037,1.192245 v 0.231276 c 0,0.732476 0.415294,1.331445 1.245632,1.797027 0.593097,0.293584 0.889649,0.661341 0.889649,1.103198 v 0.07111 c 0,0.272826 -0.183877,0.433038 -0.551599,0.480484 -1.182238,-0.01731 -1.402145,-1.983314 -1.530295,-0.800603 v 0.142207 c 0,0.346961 0.05341,0.637647 0.160161,0.871921 0.219448,0.533788 0.67014,0.800603 1.352203,0.800603 h 0.213548 c 0.154204,0 0.261013,-0.01173 0.320323,-0.03545 0.759164,-0.157172 1.138654,-0.560531 1.138654,-1.209973 v -0.177889 c 0,-0.723578 -0.391426,-1.328617 -1.174313,-1.814959 -0.628684,-0.355857 -0.943037,-0.753148 -0.943037,-1.19204 v -0.01793 c 0,-0.326206 0.189947,-0.51595 0.569531,-0.569327 h 0.124502 c 0.07389,0 0.474417,0.0085 0.874367,0.02119 0.283479,0.02661 0.658017,0.121104 0.68201,0.380231 0,1.465894 0.255581,3.178068 0.33642,4.616152 l 0.856232,0.0067 c 0.05635,-0.06821 0.154891,-0.75097 0.620472,-2.035028 l 0.08905,0.17789 c 0.394409,1.233643 0.607823,1.850414 0.640442,1.850414 h 1.014355 c 0.021,-0.0315 0.366909,-1.668465 1.001518,-4.730874 0.02089,0.0701 0.03319,0.150905 0.05156,0.242076 0.03743,0.185797 1.032825,0.206893 1.029842,0.04238 -0.004,-0.221513 -0.04137,-0.449725 -0.08517,-0.660003 -0.06227,-0.229826 -0.26327,-0.835779 -0.677324,-0.836263 -0.03115,-2.7e-5 -0.06872,-9.14e-4 -0.100457,-0.001 -0.01906,-6.5e-5 -0.03534,1.01e-4 -0.04748,8.07e-4 h -0.116759 -0.806716 l -0.01773,0.01793 -0.836262,3.932105 h -0.03566 C 27.787986,63.359453 27.604108,62.849489 27.532937,62.724941 H 26.55424 c -0.02372,0 -0.136397,0.284616 -0.33805,0.853989 h -0.01773 v -1.868141 c 0,-0.290619 -0.0178,-0.515964 -0.05338,-0.676101 -0.177931,-0.510065 -0.456681,-0.765148 -0.836263,-0.765148 h -0.124502 c -0.02076,0 -0.103318,-2.75e-4 -0.221903,-4.07e-4 z m 9.05136,0 c -0.05635,0.06821 -0.15489,0.750968 -0.620473,2.035028 l -0.08905,-0.17789 C 32.909832,60.892636 32.69642,60.275663 32.663801,60.275663 h -1.014152 c -0.01965,0.02947 -0.323523,1.46299 -0.880072,4.144431 0.0089,-0.340802 0.02943,-1.188262 0.03444,-1.953521 0.0011,-0.170685 -0.255728,-0.255933 -0.512476,-0.255932 -0.256747,2e-6 -0.513413,0.08525 -0.511661,0.255932 0.01007,0.981049 0,2.571548 0,2.571548 0,0.192757 0.0178,0.346898 0.05339,0.462553 0.161596,0.484793 0.424395,0.733562 0.788173,0.746604 0.187458,0.02032 0.325772,0.0012 0.787562,0.0077 l 0.845636,-3.98651 h 0.03545 c 0.29655,0.895579 0.480428,1.405744 0.551599,1.530294 h 0.978696 c 0.02373,0 0.136398,-0.284819 0.338051,-0.854193 h 0.01773 v 1.868345 c 0,0.290618 0.0178,0.515964 0.05338,0.676101 0.17793,0.510066 0.45668,0.765148 0.836263,0.765148 h 0.124502 c 0.0674,0 0.782911,0.0022 1.268046,-0.0039 0.142645,0.0034 0.276979,0.0039 0.393475,0.0039 h 0.177889 c 0.240205,0 0.441884,-0.02974 0.604987,-0.08905 0.628685,-0.231309 0.943036,-0.628596 0.943036,-1.192041 v -0.231276 c 0,-0.732478 -0.415088,-1.331647 -1.245428,-1.79723 -0.593099,-0.293585 -0.889649,-0.661136 -0.889649,-1.102995 v -0.07132 c 0,-0.272826 0.183674,-0.432835 0.551395,-0.480281 1.182244,0.01731 1.402146,1.983317 1.530295,0.800603 V 61.94814 c 0,-0.346964 -0.0534,-0.637444 -0.160161,-0.871718 -0.219447,-0.53379 -0.670138,-0.800807 -1.352203,-0.800807 h -0.213548 c -0.154205,0 -0.261013,0.01193 -0.320323,0.03566 -0.759167,0.157171 -1.138653,0.560529 -1.138653,1.209972 v 0.17789 c 0,0.723581 0.391422,1.328616 1.174313,1.814958 0.628685,0.35586 0.943036,0.753147 0.943036,1.192041 v 0.01773 c 0,0.326204 -0.189743,0.516151 -0.569327,0.56953 h -0.124706 c -0.0739,0 -0.474352,-0.0085 -0.874366,-0.02119 -0.283452,-0.02662 -0.657814,-0.121103 -0.681807,-0.38023 0,-1.465897 -0.255581,-3.178269 -0.33642,-4.616356 z" />
        <g
           aria-label="S"
           id="g2109"
           style="font-size:16.9333px;font-family:Mistral;-inkscape-font-specification:Mistral;text-align:center;text-anchor:middle;fill:#e6e6e6;fill-opacity:1;stroke:none;stroke-width:0.379413;stroke-linecap:round;stroke-opacity:1"
           transform="matrix(0.53799408,0,0,0.53799408,2.8970815,24.41753)" />
        <g
           id="g2113"
           transform="matrix(-0.53799408,0,0,-0.53799408,36.45527,100.59339)"
           style="fill:#e6e6e6;fill-opacity:1;stroke:none;stroke-opacity:1">
          <g
             aria-label="S"
             id="g2111"
             style="font-size:16.9333px;font-family:Mistral;-inkscape-font-specification:Mistral;text-align:center;text-anchor:middle;fill:#e6e6e6;fill-opacity:1;stroke:none;stroke-width:0.379413;stroke-linecap:round;stroke-opacity:1" />
        </g>
      </g>
    </g>
  </g>
</svg>
